<svg width="1400" height="760" viewBox="0 0 1400 760" fill="none" xmlns="http://www.w3.org/2000/svg">
  <defs>
    <linearGradient id="bg" x1="60" y1="40" x2="1340" y2="720" gradientUnits="userSpaceOnUse">
      <stop stop-color="#F8FAFC"/>
      <stop offset="1" stop-color="#EDF7F4"/>
    </linearGradient>
    <filter id="shadow" x="0" y="0" width="1400" height="760" filterUnits="userSpaceOnUse" color-interpolation-filters="sRGB">
      <feDropShadow dx="0" dy="24" stdDeviation="28" flood-color="#0F172A" flood-opacity="0.08"/>
    </filter>
    <marker id="arrow" markerWidth="14" markerHeight="14" refX="10" refY="7" orient="auto">
      <path d="M1 1L11 7L1 13" fill="none" stroke="#6B7280" stroke-width="2" stroke-linecap="round" stroke-linejoin="round"/>
    </marker>
  </defs>
  <rect width="1400" height="760" rx="32" fill="url(#bg)"/>
  <rect x="44" y="44" width="1312" height="672" rx="28" stroke="#D7E2E8" stroke-width="2"/>
  <text x="86" y="116" fill="#0F172A" font-family="Inter, Arial, sans-serif" font-size="38" font-weight="800">Generator-verifier-reviser loop</text>
  <text x="86" y="156" fill="#475569" font-family="Inter, Arial, sans-serif" font-size="22" font-weight="500">The loop is adversarial by design: candidate answers are challenged before they are trusted.</text>

  <g filter="url(#shadow)">
    <rect x="96" y="258" width="232" height="120" rx="28" fill="#FFFFFF" stroke="#D7E2E8" stroke-width="2"/>
    <text x="126" y="306" fill="#0F172A" font-family="Inter, Arial, sans-serif" font-size="30" font-weight="700">Question</text>
    <text x="126" y="344" fill="#64748B" font-family="Inter, Arial, sans-serif" font-size="21" font-weight="500">human intent and scope</text>

    <rect x="430" y="204" width="246" height="132" rx="30" fill="#FFFFFF" stroke="#D7E2E8" stroke-width="2"/>
    <text x="462" y="256" fill="#0F172A" font-family="Inter, Arial, sans-serif" font-size="31" font-weight="700">Generator</text>
    <text x="462" y="294" fill="#64748B" font-family="Inter, Arial, sans-serif" font-size="21" font-weight="500">propose a candidate answer</text>

    <rect x="738" y="186" width="292" height="168" rx="32" fill="#ECFDF5" stroke="#7DD3C7" stroke-width="2"/>
    <text x="772" y="240" fill="#0F172A" font-family="Inter, Arial, sans-serif" font-size="34" font-weight="800">Verifier</text>
    <text x="772" y="282" fill="#0F766E" font-family="Inter, Arial, sans-serif" font-size="22" font-weight="700">adversarial review</text>
    <text x="772" y="316" fill="#64748B" font-family="Inter, Arial, sans-serif" font-size="21" font-weight="500">break claims, test scope,</text>
    <text x="772" y="344" fill="#64748B" font-family="Inter, Arial, sans-serif" font-size="21" font-weight="500">request deeper evidence</text>

    <rect x="1098" y="210" width="210" height="120" rx="28" fill="#FFFFFF" stroke="#D7E2E8" stroke-width="2"/>
    <text x="1132" y="258" fill="#0F172A" font-family="Inter, Arial, sans-serif" font-size="30" font-weight="700">Result</text>
    <text x="1132" y="296" fill="#64748B" font-family="Inter, Arial, sans-serif" font-size="21" font-weight="500">verified answer</text>

    <rect x="470" y="510" width="230" height="122" rx="28" fill="#EFF6FF" stroke="#93C5FD" stroke-width="2"/>
    <text x="502" y="558" fill="#0F172A" font-family="Inter, Arial, sans-serif" font-size="30" font-weight="700">Reviser</text>
    <text x="502" y="596" fill="#64748B" font-family="Inter, Arial, sans-serif" font-size="21" font-weight="500">repair concrete flaws</text>

    <rect x="824" y="498" width="314" height="148" rx="30" fill="#FFFFFF" stroke="#D7E2E8" stroke-width="2"/>
    <text x="858" y="546" fill="#0F172A" font-family="Inter, Arial, sans-serif" font-size="30" font-weight="700">Tier 2 / Tier 3</text>
    <text x="858" y="582" fill="#64748B" font-family="Inter, Arial, sans-serif" font-size="21" font-weight="500">analysis or proof only when</text>
    <text x="858" y="610" fill="#64748B" font-family="Inter, Arial, sans-serif" font-size="21" font-weight="500">the claim actually warrants it</text>

    <rect x="1140" y="514" width="168" height="116" rx="26" fill="#FFF7ED" stroke="#FDBA74" stroke-width="2"/>
    <text x="1170" y="558" fill="#0F172A" font-family="Inter, Arial, sans-serif" font-size="26" font-weight="700">Halt</text>
    <text x="1170" y="592" fill="#64748B" font-family="Inter, Arial, sans-serif" font-size="20" font-weight="500">explicit failure</text>
  </g>

  <path d="M328 318H430" stroke="#6B7280" stroke-width="3" stroke-linecap="round" marker-end="url(#arrow)"/>
  <path d="M676 270H738" stroke="#6B7280" stroke-width="3" stroke-linecap="round" marker-end="url(#arrow)"/>
  <path d="M1030 270H1098" stroke="#6B7280" stroke-width="3" stroke-linecap="round" marker-end="url(#arrow)"/>
  <path d="M884 354V438C884 468 862 490 832 490H585C555 490 534 510 534 510" stroke="#6B7280" stroke-width="3" stroke-linecap="round" stroke-linejoin="round" marker-end="url(#arrow)"/>
  <path d="M620 510V470C620 430 654 402 694 402H738" stroke="#6B7280" stroke-width="3" stroke-linecap="round" stroke-linejoin="round" marker-end="url(#arrow)"/>
  <path d="M916 354V498" stroke="#6B7280" stroke-width="3" stroke-linecap="round" marker-end="url(#arrow)"/>
  <path d="M1030 572H1140" stroke="#6B7280" stroke-width="3" stroke-linecap="round" marker-end="url(#arrow)"/>

  <rect x="102" y="420" width="248" height="44" rx="22" fill="#F1F5F9"/>
  <text x="128" y="448" fill="#475569" font-family="Inter, Arial, sans-serif" font-size="18" font-weight="600">candidate enters the loop once</text>
  <rect x="740" y="388" width="246" height="44" rx="22" fill="#D9F3F0"/>
  <text x="770" y="416" fill="#0F766E" font-family="Inter, Arial, sans-serif" font-size="18" font-weight="700">deeper evidence is selective</text>
</svg>
